<svg width="80" height="32" viewBox="0 0 80 32" fill="none" xmlns="http://www.w3.org/2000/svg">
<rect width="32" height="32" rx="16" fill="white"/>
<circle cx="16" cy="16" r="15.5" fill="#FF7A00" stroke="white"/>
<path d="M8.02224 20.1904H6.91428L10.1188 11.4632H11.2097L14.4143 20.1904H13.3063L10.6984 12.8438H10.6302L8.02224 20.1904ZM8.43133 16.7813H12.8972V17.7188H8.43133V16.7813ZM15.7737 11.4632H17.035L20.0009 18.7075H20.1032L23.0691 11.4632H24.3305V20.1904H23.3418V13.5597H23.2566L20.5293 20.1904H19.5748L16.8475 13.5597H16.7623V20.1904H15.7737V11.4632Z" fill="white"/>
<rect x="24" width="32" height="32" rx="16" fill="white"/>
<circle cx="40" cy="16" r="15.5" fill="#1FD7C1" stroke="white"/>
<path d="M32.133 20.1904V11.4632H37.4001V12.4007H33.1898V15.3495H37.1273V16.287H33.1898V19.2529H37.4683V20.1904H32.133ZM39.3049 11.4632H40.5663L43.5322 18.7075H43.6345L46.6004 11.4632H47.8617V20.1904H46.8731V13.5597H46.7879L44.0606 20.1904H43.106L40.3788 13.5597H40.2935V20.1904H39.3049V11.4632Z" fill="white"/>
<rect x="48" width="32" height="32" rx="16" fill="white"/>
<circle cx="64" cy="16" r="15.5" fill="#462F8A" stroke="white"/>
<path d="M55.8166 11.4632H57.078L60.0439 18.7075H60.1462L63.1121 11.4632H64.3734V20.1904H63.3848V13.5597H63.2996L60.5723 20.1904H59.6178L56.8905 13.5597H56.8053V20.1904H55.8166V11.4632ZM66.4924 20.1904V11.4632H69.5435C70.1515 11.4632 70.6529 11.5683 71.0478 11.7785C71.4427 11.9859 71.7367 12.2657 71.9299 12.618C72.1231 12.9674 72.2197 13.3552 72.2197 13.7813C72.2197 14.1563 72.1529 14.466 72.0194 14.7103C71.8887 14.9546 71.7154 15.1478 71.4995 15.2899C71.2864 15.4319 71.0549 15.537 70.8049 15.6052V15.6904C71.072 15.7075 71.3404 15.8012 71.6103 15.9717C71.8802 16.1421 72.106 16.3865 72.2879 16.7046C72.4697 17.0228 72.5606 17.412 72.5606 17.8722C72.5606 18.3097 72.4612 18.7032 72.2623 19.0526C72.0634 19.4021 71.7495 19.6791 71.3205 19.8836C70.8916 20.0882 70.3333 20.1904 69.6458 20.1904H66.4924ZM67.5492 19.2529H69.6458C70.3362 19.2529 70.8262 19.1194 71.116 18.8524C71.4086 18.5825 71.5549 18.2558 71.5549 17.8722C71.5549 17.5768 71.4796 17.3041 71.3291 17.0541C71.1785 16.8012 70.964 16.5995 70.6856 16.449C70.4072 16.2955 70.0776 16.2188 69.697 16.2188H67.5492V19.2529ZM67.5492 15.2984H69.5095C69.8276 15.2984 70.1146 15.2359 70.3702 15.1109C70.6288 14.9859 70.8333 14.8097 70.9839 14.5825C71.1373 14.3552 71.214 14.0882 71.214 13.7813C71.214 13.3978 71.0805 13.0725 70.8134 12.8055C70.5464 12.5356 70.1231 12.4007 69.5435 12.4007H67.5492V15.2984Z" fill="white"/>
</svg>
