<svg width="19" height="20" viewBox="0 0 19 20" fill="none" xmlns="http://www.w3.org/2000/svg">
<path d="M12.3555 16C11.6555 16 11.0638 15.7583 10.5805 15.275C10.0971 14.7917 9.85547 14.2 9.85547 13.5C9.85547 12.8 10.0971 12.2083 10.5805 11.725C11.0638 11.2417 11.6555 11 12.3555 11C13.0555 11 13.6471 11.2417 14.1305 11.725C14.6138 12.2083 14.8555 12.8 14.8555 13.5C14.8555 14.2 14.6138 14.7917 14.1305 15.275C13.6471 15.7583 13.0555 16 12.3555 16ZM2.85547 20C2.30547 20 1.83464 19.8042 1.44297 19.4125C1.0513 19.0208 0.855469 18.55 0.855469 18V4C0.855469 3.45 1.0513 2.97917 1.44297 2.5875C1.83464 2.19583 2.30547 2 2.85547 2H3.85547V1C3.85547 0.716667 3.9513 0.479167 4.14297 0.2875C4.33464 0.0958333 4.57214 0 4.85547 0C5.1388 0 5.3763 0.0958333 5.56797 0.2875C5.75964 0.479167 5.85547 0.716667 5.85547 1V2H13.8555V1C13.8555 0.716667 13.9513 0.479167 14.143 0.2875C14.3346 0.0958333 14.5721 0 14.8555 0C15.1388 0 15.3763 0.0958333 15.568 0.2875C15.7596 0.479167 15.8555 0.716667 15.8555 1V2H16.8555C17.4055 2 17.8763 2.19583 18.268 2.5875C18.6596 2.97917 18.8555 3.45 18.8555 4V18C18.8555 18.55 18.6596 19.0208 18.268 19.4125C17.8763 19.8042 17.4055 20 16.8555 20H2.85547ZM2.85547 18H16.8555V8H2.85547V18ZM2.85547 6H16.8555V4H2.85547V6Z" fill="#2A3647"/>
</svg>
